<mxfile host="Electron" modified="2025-01-02T21:00:58.205Z" agent="Mozilla/5.0 (Windows NT 10.0; Win64; x64) AppleWebKit/537.36 (KHTML, like Gecko) draw.io/22.1.16 Chrome/120.0.6099.109 Electron/28.1.0 Safari/537.36" etag="8tlixISLZyprtqFvnMlB" version="22.1.16" type="device">
  <diagram name="Side-1" id="s--7dHOOvZNyD8MAttnz">
    <mxGraphModel dx="1098" dy="1180" grid="1" gridSize="10" guides="1" tooltips="1" connect="1" arrows="1" fold="1" page="1" pageScale="1" pageWidth="827" pageHeight="1169" math="0" shadow="0">
      <root>
        <mxCell id="0" />
        <mxCell id="1" parent="0" />
        <mxCell id="0IzpBJB4sgEFQKCQtinh-5" value="BiquadSegmentMiddle" style="swimlane;fontStyle=1;align=center;verticalAlign=top;childLayout=stackLayout;horizontal=1;startSize=26;horizontalStack=0;resizeParent=1;resizeParentMax=0;resizeLast=0;collapsible=1;marginBottom=0;whiteSpace=wrap;html=1;" vertex="1" parent="1">
          <mxGeometry x="240" y="350" width="390" height="150" as="geometry" />
        </mxCell>
        <mxCell id="0IzpBJB4sgEFQKCQtinh-6" value="- isReady: bool&lt;br&gt;- biquad: XBiquadv2between" style="text;strokeColor=none;fillColor=none;align=left;verticalAlign=top;spacingLeft=4;spacingRight=4;overflow=hidden;rotatable=0;points=[[0,0.5],[1,0.5]];portConstraint=eastwest;whiteSpace=wrap;html=1;" vertex="1" parent="0IzpBJB4sgEFQKCQtinh-5">
          <mxGeometry y="26" width="390" height="34" as="geometry" />
        </mxCell>
        <mxCell id="0IzpBJB4sgEFQKCQtinh-7" value="" style="line;strokeWidth=1;fillColor=none;align=left;verticalAlign=middle;spacingTop=-1;spacingLeft=3;spacingRight=3;rotatable=0;labelPosition=right;points=[];portConstraint=eastwest;strokeColor=inherit;" vertex="1" parent="0IzpBJB4sgEFQKCQtinh-5">
          <mxGeometry y="60" width="390" height="8" as="geometry" />
        </mxCell>
        <mxCell id="0IzpBJB4sgEFQKCQtinh-8" value="+&amp;nbsp;BiquadSegmentMiddle():&amp;nbsp;BiquadSegmentMiddle&lt;br&gt;+&amp;nbsp;BiquadSegmentMiddle(uint16_t):&amp;nbsp;BiquadSegmentMiddle&lt;br&gt;+ SetCoefficients(uint32_t, uint32_t, uint32_t, uint32_t, uint32_t): void&lt;br&gt;&lt;br&gt;- InitBiquad(uint16_t): int" style="text;strokeColor=none;fillColor=none;align=left;verticalAlign=top;spacingLeft=4;spacingRight=4;overflow=hidden;rotatable=0;points=[[0,0.5],[1,0.5]];portConstraint=eastwest;whiteSpace=wrap;html=1;" vertex="1" parent="0IzpBJB4sgEFQKCQtinh-5">
          <mxGeometry y="68" width="390" height="82" as="geometry" />
        </mxCell>
      </root>
    </mxGraphModel>
  </diagram>
</mxfile>
